# xmcd
#
# Track frame offsets:
#	183
#	14903
#	28235
#	44610
#	58110
#	72870
#	86755
#	100290
#	114520
#	129155
#	142960
#	158785
#	172028
#	185080
#	200265
#	214733
#	228065
#	243103
#	258518
#	271625
#	285758
#	301663
#
# Disc length: 4218 seconds
#
# Revision: 0
# Processed by: cddbd v1.5.2PL0 Copyright (c) Steve Scherf et al.
# Submitted via: audiograbber 1.83.01
#
DISCID=31107816
DTITLE=Frank Sinatra - The Kid From Hoboken Cd1
DYEAR=1994
DGENRE=
TTITLE0=Stardust
TTITLE1=In The Blue Of The Evening
TTITLE2=All This And Heaven Too
TTITLE3=Pale Moon
TTITLE4=Moments In The Moonlight
TTITLE5=Anything
TTITLE6=Trade Winds
TTITLE7=Melancholy Mood
TTITLE8=The Sky Fell Down
TTITLE9=Not So Long Ago
TTITLE10=Shake Down The Stars
TTITLE11=Oh! What A Beautiful Morning
TTITLE12=The Fable Of The Rose
TTITLE13=Polka Dots And Moonbeams
TTITLE14=Looking For Yesterday
TTITLE15=Shadows On The Sand
TTITLE16=East Of The Sun
TTITLE17=The Night They Called It A Day
TTITLE18=Tell Me At Midnight
TTITLE19=April Played The Fiddle
TTITLE20=I Guess I'll Have To Dream The Rest
TTITLE21=Blue Skies
EXTD=
EXTT0=
EXTT1=
EXTT2=
EXTT3=
EXTT4=
EXTT5=
EXTT6=
EXTT7=
EXTT8=
EXTT9=
EXTT10=
EXTT11=
EXTT12=
EXTT13=
EXTT14=
EXTT15=
EXTT16=
EXTT17=
EXTT18=
EXTT19=
EXTT20=
EXTT21=
PLAYORDER=
